<mxfile host="app.diagrams.net" modified="2022-03-02T00:46:49.561Z" agent="5.0 (X11; Linux x86_64) AppleWebKit/537.36 (KHTML, like Gecko) Chrome/98.0.4758.102 Safari/537.36" etag="tNhj6PlUJBcMMSAUYyUK" version="16.6.2" type="github">
  <diagram name="Page-1" id="74b105a0-9070-1c63-61bc-23e55f88626e">
    <mxGraphModel dx="861" dy="484" grid="1" gridSize="10" guides="1" tooltips="1" connect="1" arrows="1" fold="1" page="1" pageScale="1.5" pageWidth="1169" pageHeight="826" background="none" math="0" shadow="0">
      <root>
        <mxCell id="0" style=";html=1;" />
        <mxCell id="1" style=";html=1;" parent="0" />
        <mxCell id="6vQewMITl7HtBCGFGI-f-3" value="" style="sketch=0;outlineConnect=0;fontColor=#232F3E;gradientColor=none;fillColor=#3F8624;strokeColor=none;dashed=0;verticalLabelPosition=bottom;verticalAlign=top;align=center;html=1;fontSize=12;fontStyle=0;aspect=fixed;pointerEvents=1;shape=mxgraph.aws4.bucket;" vertex="1" parent="1">
          <mxGeometry x="1460" y="10" width="75" height="78" as="geometry" />
        </mxCell>
        <mxCell id="6vQewMITl7HtBCGFGI-f-5" value="Auto Scaling group" style="points=[[0,0],[0.25,0],[0.5,0],[0.75,0],[1,0],[1,0.25],[1,0.5],[1,0.75],[1,1],[0.75,1],[0.5,1],[0.25,1],[0,1],[0,0.75],[0,0.5],[0,0.25]];outlineConnect=0;gradientColor=none;html=1;whiteSpace=wrap;fontSize=12;fontStyle=0;container=1;pointerEvents=0;collapsible=0;recursiveResize=0;shape=mxgraph.aws4.groupCenter;grIcon=mxgraph.aws4.group_auto_scaling_group;grStroke=1;strokeColor=#D86613;fillColor=none;verticalAlign=top;align=center;fontColor=#D86613;dashed=1;spacingTop=25;" vertex="1" parent="1">
          <mxGeometry x="460" y="210" width="780" height="630" as="geometry" />
        </mxCell>
        <mxCell id="6vQewMITl7HtBCGFGI-f-7" value="" style="sketch=0;points=[[0,0,0],[0.25,0,0],[0.5,0,0],[0.75,0,0],[1,0,0],[0,1,0],[0.25,1,0],[0.5,1,0],[0.75,1,0],[1,1,0],[0,0.25,0],[0,0.5,0],[0,0.75,0],[1,0.25,0],[1,0.5,0],[1,0.75,0]];outlineConnect=0;fontColor=#232F3E;gradientColor=#F78E04;gradientDirection=north;fillColor=#D05C17;strokeColor=#ffffff;dashed=0;verticalLabelPosition=bottom;verticalAlign=top;align=center;html=1;fontSize=12;fontStyle=0;aspect=fixed;shape=mxgraph.aws4.resourceIcon;resIcon=mxgraph.aws4.lambda;" vertex="1" parent="6vQewMITl7HtBCGFGI-f-5">
          <mxGeometry x="180" y="180" width="78" height="78" as="geometry" />
        </mxCell>
        <mxCell id="6vQewMITl7HtBCGFGI-f-8" value="" style="sketch=0;points=[[0,0,0],[0.25,0,0],[0.5,0,0],[0.75,0,0],[1,0,0],[0,1,0],[0.25,1,0],[0.5,1,0],[0.75,1,0],[1,1,0],[0,0.25,0],[0,0.5,0],[0,0.75,0],[1,0.25,0],[1,0.5,0],[1,0.75,0]];outlineConnect=0;fontColor=#232F3E;gradientColor=#F78E04;gradientDirection=north;fillColor=#D05C17;strokeColor=#ffffff;dashed=0;verticalLabelPosition=bottom;verticalAlign=top;align=center;html=1;fontSize=12;fontStyle=0;aspect=fixed;shape=mxgraph.aws4.resourceIcon;resIcon=mxgraph.aws4.lambda;" vertex="1" parent="6vQewMITl7HtBCGFGI-f-5">
          <mxGeometry x="380" y="178" width="80" height="80" as="geometry" />
        </mxCell>
        <mxCell id="6vQewMITl7HtBCGFGI-f-4" value="" style="sketch=0;points=[[0,0,0],[0.25,0,0],[0.5,0,0],[0.75,0,0],[1,0,0],[0,1,0],[0.25,1,0],[0.5,1,0],[0.75,1,0],[1,1,0],[0,0.25,0],[0,0.5,0],[0,0.75,0],[1,0.25,0],[1,0.5,0],[1,0.75,0]];outlineConnect=0;fontColor=#232F3E;gradientColor=#945DF2;gradientDirection=north;fillColor=#5A30B5;strokeColor=#ffffff;dashed=0;verticalLabelPosition=bottom;verticalAlign=top;align=center;html=1;fontSize=12;fontStyle=0;aspect=fixed;shape=mxgraph.aws4.resourceIcon;resIcon=mxgraph.aws4.serverless;" vertex="1" parent="6vQewMITl7HtBCGFGI-f-5">
          <mxGeometry width="90" height="90" as="geometry" />
        </mxCell>
        <mxCell id="6vQewMITl7HtBCGFGI-f-10" value="" style="edgeStyle=orthogonalEdgeStyle;html=1;endArrow=none;elbow=vertical;startArrow=none;startFill=0;endFill=0;strokeColor=#545B64;rounded=0;dashed=1;" edge="1" parent="6vQewMITl7HtBCGFGI-f-5" source="6vQewMITl7HtBCGFGI-f-7" target="6vQewMITl7HtBCGFGI-f-8">
          <mxGeometry width="100" relative="1" as="geometry">
            <mxPoint x="290" y="218.09" as="sourcePoint" />
            <mxPoint x="390" y="218.09" as="targetPoint" />
          </mxGeometry>
        </mxCell>
        <mxCell id="6vQewMITl7HtBCGFGI-f-2" value="" style="sketch=0;outlineConnect=0;fontColor=#232F3E;gradientColor=none;fillColor=#2E27AD;strokeColor=none;dashed=0;verticalLabelPosition=bottom;verticalAlign=top;align=center;html=1;fontSize=12;fontStyle=0;aspect=fixed;pointerEvents=1;shape=mxgraph.aws4.rds_postgresql_instance;" vertex="1" parent="6vQewMITl7HtBCGFGI-f-5">
          <mxGeometry x="280" y="490" width="78" height="78" as="geometry" />
        </mxCell>
        <mxCell id="6vQewMITl7HtBCGFGI-f-15" value="" style="edgeStyle=orthogonalEdgeStyle;html=1;endArrow=block;elbow=vertical;startArrow=block;startFill=1;endFill=1;strokeColor=#545B64;rounded=0;exitX=0.5;exitY=1;exitDx=0;exitDy=0;exitPerimeter=0;" edge="1" parent="6vQewMITl7HtBCGFGI-f-5" source="6vQewMITl7HtBCGFGI-f-7" target="6vQewMITl7HtBCGFGI-f-2">
          <mxGeometry width="100" relative="1" as="geometry">
            <mxPoint x="250" y="310" as="sourcePoint" />
            <mxPoint x="350" y="310" as="targetPoint" />
            <Array as="points">
              <mxPoint x="219" y="390" />
              <mxPoint x="310" y="390" />
            </Array>
          </mxGeometry>
        </mxCell>
        <mxCell id="6vQewMITl7HtBCGFGI-f-16" value="" style="edgeStyle=orthogonalEdgeStyle;html=1;endArrow=block;elbow=vertical;startArrow=block;startFill=1;endFill=1;strokeColor=#545B64;rounded=0;exitX=0.5;exitY=1;exitDx=0;exitDy=0;exitPerimeter=0;" edge="1" parent="6vQewMITl7HtBCGFGI-f-5" source="6vQewMITl7HtBCGFGI-f-8" target="6vQewMITl7HtBCGFGI-f-2">
          <mxGeometry width="100" relative="1" as="geometry">
            <mxPoint x="229" y="268" as="sourcePoint" />
            <mxPoint x="359" y="540.0984669274862" as="targetPoint" />
            <Array as="points">
              <mxPoint x="420" y="390" />
              <mxPoint x="330" y="390" />
            </Array>
          </mxGeometry>
        </mxCell>
      </root>
    </mxGraphModel>
  </diagram>
</mxfile>
